<?xml version="1.0" encoding="UTF-8"?>
<svg version="1.1" xmlns="http://www.w3.org/2000/svg" width="813" height="603">
<path d="M0 0 C1.04561096 0.01400848 2.09122192 0.02801697 3.16851807 0.04244995 C4.31152878 0.06317566 5.45453949 0.08390137 6.63218689 0.10525513 C8.44603378 0.13188736 8.44603378 0.13188736 10.29652405 0.15905762 C13.62353424 0.20901134 16.95040236 0.2637168 20.27729726 0.32058859 C23.80320635 0.37981316 27.32920397 0.43322325 30.85519409 0.48736572 C36.81819116 0.57975952 42.78111322 0.67612841 48.7440033 0.775177 C56.25254021 0.89988437 63.7611591 1.01846672 71.26982975 1.13480949 C77.85256291 1.23684937 84.43524951 1.34179169 91.01792979 1.44718027 C93.06203965 1.47981449 95.10615457 1.51211501 97.15027046 1.54436874 C101.09739763 1.60724946 105.04448718 1.67197727 108.99156189 1.73806763 C109.9861193 1.75464456 109.9861193 1.75464456 111.00076878 1.77155638 C119.11358519 1.90863886 127.22473345 2.08015044 135.33589172 2.29431152 C163.73535624 3.03721122 192.12807958 3.2840326 220.53637695 3.43548203 C229.03730608 3.48085476 237.53817459 3.53458938 246.03904724 3.5894165 C248.99010448 3.60835815 251.94116199 3.62725768 254.89221954 3.64615059 C255.62903529 3.65087095 256.36585105 3.65559131 257.12499455 3.66045471 C265.42792173 3.7135624 273.7308573 3.76528024 282.03379822 3.81619263 C282.78830251 3.82082142 283.54280681 3.82545022 284.32017487 3.83021928 C294.94908574 3.89522798 305.57801614 3.9555296 316.20697045 4.01296011 C436.26178409 4.66266219 436.26178409 4.66266219 478.46462059 6.34105539 C480.75668235 6.4319982 483.04885819 6.51947221 485.34106445 6.60668564 C523.01571039 8.07197217 523.01571039 8.07197217 534.46006775 14.61355591 C535.36208923 15.1258374 535.36208923 15.1258374 536.28233337 15.64846802 C557.84286375 28.19640443 573.15655424 44.98091681 579.81285095 69.47463989 C584.3011363 87.32076747 580.91071762 104.42414157 577.51475525 122.14089966 C577.05853985 124.58168405 576.60367144 127.02272053 576.15005493 129.46398926 C575.06296304 135.29577367 573.96205377 141.12484218 572.85454112 146.95277309 C571.56998107 153.71666028 570.30337561 160.48387411 569.03763878 167.25130451 C566.20606876 182.38713928 563.34683252 197.51765846 560.4799118 212.64683533 C559.53870336 217.61560432 558.59964174 222.58477817 557.66075134 227.5539856 C553.30076132 250.62349233 553.30076132 250.62349233 551.17751598 261.77396202 C547.99968459 278.46469913 544.88158175 295.16536966 541.82725525 311.87918091 C541.57272614 313.27194528 541.57272614 313.27194528 541.31305504 314.6928463 C539.65423485 323.77361514 538.00005448 332.85521706 536.35337925 341.93819618 C530.89840086 372.02246544 530.89840086 372.02246544 528.0499115 386.47293091 C527.85791672 387.4599147 527.66592194 388.4468985 527.46810913 389.46379089 C526.01261091 396.72565011 524.00602514 403.32971033 520.83506775 410.05105591 C520.31041931 411.21636841 519.78577087 412.38168091 519.245224 413.58230591 C515.69142716 421.24876281 511.50214928 427.78405648 505.83506775 434.05105591 C505.20471619 434.77421997 504.57436462 435.49738403 503.9249115 436.24246216 C499.20824396 441.32264935 493.90096236 445.36214289 488.27256775 449.36355591 C487.56430847 449.86741821 486.85604919 450.37128052 486.12632751 450.89041138 C468.09047841 463.39621385 448.57869946 461.18141769 427.40967941 461.10490036 C420.44969826 461.07997598 413.48968223 461.07388672 406.52966428 461.0664618 C404.84992939 461.06464219 403.17019467 461.06266194 401.49046016 461.06052756 C368.9770455 461.0200269 336.46367371 461.1865266 303.95069504 461.33857346 C293.2538003 461.38853564 282.55691582 461.4352394 271.85997009 461.47293091 C228.05480659 461.62867273 184.27176144 461.80791452 140.49031067 463.37145996 C128.18837701 463.80986011 115.8906144 464.17229096 103.58067322 464.27127075 C102.43908815 464.28910929 101.29750309 464.30694782 100.12132454 464.32532692 C81.99499035 464.37942035 67.70139161 456.17200305 54.8924408 443.78274536 C51.2808406 440.2471537 51.2808406 440.2471537 46.83506775 438.05105591 C44.02820795 438.72308162 44.02820795 438.72308162 41.0342865 440.13699341 C39.85108826 440.64689819 38.66789001 441.15680298 37.44883728 441.68215942 C36.81286621 441.96471588 36.17689514 442.24727234 35.52165222 442.53839111 C32.75842724 443.76536154 29.98025041 444.95672112 27.20292664 446.15135193 C25.71292908 446.79284261 24.22372867 447.43618757 22.73527527 448.08125305 C14.35795331 451.70883996 5.91140877 455.16285889 -2.53993225 458.61355591 C-4.17028746 459.2806322 -5.80057615 459.94787106 -7.43080139 460.61526489 C-10.8551631 462.01694836 -14.27994135 463.41760773 -17.70497131 464.81765747 C-22.46862752 466.7654146 -27.23030715 468.71796521 -31.99169922 470.67124939 C-57.23055652 481.02268063 -82.52838926 491.20597496 -107.91346741 501.19325256 C-115.24950919 504.08074242 -122.57615878 506.99134259 -129.89631653 509.91885376 C-131.74348063 510.65748125 -133.59116282 511.39481271 -135.43885803 512.1321106 C-140.5098766 514.1610924 -145.57001989 516.2077237 -150.598526 518.34011841 C-151.39629456 518.67704712 -152.19406311 519.01397583 -153.01600647 519.3611145 C-154.41838189 519.95717824 -155.81759438 520.56078532 -157.21229553 521.17459106 C-160.65833053 522.64291788 -163.41328997 523.50937172 -167.16493225 523.05105591 C-170.43241423 521.1202711 -171.88388285 519.94484363 -173.03211975 516.29324341 C-173.20770431 512.00691454 -171.94908329 510.325397 -169.53993225 506.80105591 C-169.13677795 506.20317261 -168.73362366 505.60528931 -168.31825256 504.98928833 C-164.42038229 499.26748964 -160.33136491 493.67256391 -156.24867249 488.08181763 C-152.25286684 482.60353863 -148.40115904 477.04238259 -144.60243225 471.42605591 C-140.11068333 464.79845514 -135.45505657 458.33838624 -130.61170959 451.96414185 C-126.52691081 446.57591237 -122.61438256 441.08024787 -118.73280334 435.54446411 C-113.49739781 428.08193099 -108.15450509 420.69890116 -102.80604553 413.31716919 C-100.08845052 409.56460791 -97.37698752 405.80762171 -94.66493225 402.05105591 C-93.58162863 400.55103445 -92.49829529 399.05103445 -91.41493225 397.55105591 C-90.87868225 396.80855591 -90.34243225 396.06605591 -89.78993225 395.30105591 C-88.16493225 393.05105591 -86.53993225 390.80105591 -84.91493225 388.55105591 C-84.37876282 387.80863647 -83.84259338 387.06621704 -83.29017639 386.30130005 C-82.20614809 384.80040041 -81.12200083 383.29958669 -80.03773499 381.79885864 C-77.3390557 378.06331624 -74.64241914 374.32633337 -71.9500885 370.58621216 C-65.8167713 362.0710242 -59.63232546 353.59655407 -53.39564514 345.1567688 C-49.45086014 339.81269745 -45.54547989 334.4419186 -41.66493225 329.05105591 C-37.17628563 322.81876111 -32.65529724 316.61159917 -28.10243225 310.42605591 C-27.52678528 309.63940552 -26.95113831 308.85275513 -26.35804749 308.04226685 C-23.49971883 304.15058893 -20.59817426 300.31185294 -17.57899475 296.54324341 C-17.01446594 295.82733032 -16.44993713 295.11141724 -15.86830139 294.37380981 C-14.8060547 293.03197462 -13.7279542 291.70247689 -12.63148499 290.38845825 C-12.15912415 289.78727173 -11.68676331 289.18608521 -11.2000885 288.56668091 C-10.78122375 288.0539563 -10.36235901 287.54123169 -9.93080139 287.01296997 C-7.8256567 281.6202563 -11.05894589 274.74146864 -12.79774475 269.47293091 C-13.06587982 268.64638504 -13.33401489 267.81983917 -13.61027527 266.96824646 C-14.4968926 264.24364293 -15.39285488 261.52223199 -16.28993225 258.80105591 C-16.60071716 257.85245697 -16.91150208 256.90385803 -17.23170471 255.92651367 C-23.29640698 237.4186023 -29.67990059 219.02841038 -36.1481781 200.65847778 C-38.65650549 193.52442702 -41.12753385 186.37793137 -43.58680725 179.22683716 C-45.11260639 174.7931599 -46.63864605 170.35956552 -48.16493225 165.92605591 C-48.54131836 164.83232666 -48.91770447 163.73859741 -49.30549622 162.61172485 C-53.26705305 151.11369821 -57.27550748 139.63873574 -61.50086975 128.23464966 C-61.84531128 127.30368469 -62.18975281 126.37271973 -62.54463196 125.4135437 C-64.14543985 121.09551848 -65.7592466 116.78305575 -67.395401 112.478302 C-77.0464407 86.83329463 -79.13469725 63.45952638 -67.99305725 37.87185669 C-61.17178574 22.87390772 -49.14205377 9.73016335 -33.4188385 3.82449341 C-26.22351209 2.11419974 -18.75169426 1.77635238 -11.38807678 1.28469849 C-9.21081069 1.11917261 -9.21081069 1.11917261 -7.34879398 0.53964424 C-4.82530992 -0.0249267 -2.58610108 -0.04099996 0 0 Z " fill="#FEFEFE" transform="translate(196.16493225097656,45.948944091796875)"/>
<path d="M0 0 C19.14 0 38.28 0 58 0 C56.82575758 28.18181818 56.82575758 28.18181818 56.125 39.58007812 C55.99595442 41.69118319 55.87290507 43.80259187 55.75 45.9140625 C55.66701719 47.2890837 55.58369809 48.66408466 55.5 50.0390625 C55.4278125 51.23740723 55.355625 52.43575195 55.28125 53.67041016 C55 57 55 57 54.51367188 59.74169922 C53.76260096 64.50585913 53.55116496 69.28137305 53.28125 74.09375 C53.21844849 75.15863647 53.15564697 76.22352295 53.09094238 77.32067871 C52.89091907 80.71361618 52.69495801 84.10676794 52.5 87.5 C52.24323536 91.96897274 51.9822837 96.43767188 51.71875 100.90625 C51.661427 101.92827515 51.604104 102.95030029 51.54504395 104.0032959 C51.2648499 108.7482995 50.78161334 113.31031999 50 118 C49.6921558 121.69393883 49.48881656 125.39299721 49.28125 129.09375 C49.21844849 130.15863647 49.15564697 131.22352295 49.09094238 132.32067871 C48.89091907 135.71361618 48.69495801 139.10676794 48.5 142.5 C48.24323536 146.96897274 47.9822837 151.43767188 47.71875 155.90625 C47.661427 156.92827515 47.604104 157.95030029 47.54504395 159.0032959 C47.26487766 163.74782936 46.78609669 168.31117808 46 173 C45.70403289 176.52994339 45.51233663 180.064838 45.31640625 183.6015625 C45.19208885 185.72396018 45.06773878 187.84635595 44.94335938 189.96875 C44.75353082 193.27434327 44.56505007 196.58000836 44.37768555 199.88574219 C43.73954003 211.07315146 43.06343906 222.24533051 41.96484375 233.3984375 C41.88391983 234.2293692 41.80299591 235.0603009 41.71961975 235.91641235 C41.38976542 239.09612489 41.01425901 241.95722297 40 245 C32.41 245 24.82 245 17 245 C13.91536965 210.92390706 11.58347866 176.81021066 9.378335 142.6678915 C9.07553111 137.98291065 8.77087819 133.29805214 8.46484375 128.61328125 C8.40488031 127.69514334 8.34491688 126.77700542 8.28313637 125.83104515 C7.39987681 112.37384396 6.3821133 98.9325117 5.26250076 85.49306107 C4.03311336 70.72449514 3.0020625 55.94878133 2.06469727 41.15893555 C1.84946028 37.76952601 1.63034178 34.38041357 1.4091692 30.99138927 C1.19339067 27.6754124 0.98160244 24.35918482 0.76953125 21.04296875 C0.6914473 19.84415573 0.61336334 18.64534271 0.53291321 17.41020203 C0.46251328 16.28894424 0.39211334 15.16768646 0.31958008 14.01245117 C0.25756912 13.0403923 0.19555817 12.06833344 0.13166809 11.06681824 C-0.02657504 7.38101312 0 3.68920049 0 0 Z " fill="#010101" transform="translate(431,109)"/>
<path d="M0 0 C15.51 0 31.02 0 47 0 C47 15.51 47 31.02 47 47 C31.49 47 15.98 47 0 47 C0 31.49 0 15.98 0 0 Z " fill="#030303" transform="translate(437,388)"/>
</svg>
